<?xml version="1.0" standalone="no"?>
<!DOCTYPE svg PUBLIC "-//W3C//DTD SVG 20010904//EN"
 "http://www.w3.org/TR/2001/REC-SVG-20010904/DTD/svg10.dtd">
<svg version="1.0" xmlns="http://www.w3.org/2000/svg"
 width="360.000000pt" height="360.000000pt" viewBox="0 0 360.000000 360.000000"
 preserveAspectRatio="xMidYMid meet">

<g transform="translate(0.000000,360.000000) scale(0.100000,-0.100000)"
fill="#000000" stroke="none">
<path d="M0 1800 l0 -1800 1800 0 1800 0 0 1800 0 1800 -1800 0 -1800 0 0
-1800z m1487 408 c-2 -13 -4 -5 -4 17 -1 22 1 32 4 23 2 -10 2 -28 0 -40z
m126 45 c-7 -2 -21 -2 -30 0 -10 3 -4 5 12 5 17 0 24 -2 18 -5z m285 0 c-15
-2 -42 -2 -60 0 -18 2 -6 4 27 4 33 0 48 -2 33 -4z m167 -3 c3 -5 0 -7 -8 -4
-23 8 -70 -14 -63 -31 4 -12 -7 -15 -66 -15 -84 0 -87 8 -5 12 60 2 66 7 41
32 -14 15 -10 16 40 16 30 0 58 -4 61 -10z m-292 -47 c-23 -2 -64 -2 -90 0
-26 2 -7 3 42 3 50 0 71 -1 48 -3z m337 -28 c0 -31 -24 -38 -46 -14 -16 18
-11 25 19 20 4 0 6 2 6 7 -3 16 2 23 11 17 6 -3 10 -17 10 -30z m-152 -15
c-10 -6 -31 -7 -55 -1 -38 9 -38 9 17 10 40 0 50 -2 38 -9z m92 -25 l23 -25
-59 1 c-32 1 -49 4 -36 6 12 3 28 13 35 24 6 10 12 19 13 19 0 0 11 -11 24
-25z m-463 -32 c-3 -10 -5 -2 -5 17 0 19 2 27 5 18 2 -10 2 -26 0 -35z m301
10 c-15 -2 -42 -2 -60 0 -18 2 -6 4 27 4 33 0 48 -2 33 -4z m-255 -320 c-7 -2
-19 -2 -25 0 -7 3 -2 5 12 5 14 0 19 -2 13 -5z m170 0 c-13 -2 -33 -2 -45 0
-13 2 -3 4 22 4 25 0 35 -2 23 -4z m140 0 c-13 -2 -33 -2 -45 0 -13 2 -3 4 22
4 25 0 35 -2 23 -4z m22 -43 c-3 -5 -14 -10 -23 -10 -15 0 -15 2 -2 10 20 13
33 13 25 0z m-107 -37 c-10 -2 -26 -2 -35 0 -10 3 -2 5 17 5 19 0 27 -2 18 -5z
m222 -287 c0 -2 -8 -10 -17 -17 -16 -13 -17 -12 -4 4 13 16 21 21 21 13z
m1390 -1211 c18 -21 16 -64 -4 -83 -24 -24 -98 -22 -125 2 -25 23 -27 44 -5
74 12 18 25 22 68 22 35 0 58 -5 66 -15z"/>
<path d="M3420 174 c0 -21 4 -33 10 -29 12 7 10 65 -2 65 -4 0 -8 -16 -8 -36z"/>
<path d="M3370 165 c0 -18 5 -25 20 -25 15 0 20 7 20 25 0 18 -5 25 -20 25
-15 0 -20 -7 -20 -25z"/>
</g>
</svg>
